HIERARCHY
ROOT Hips
{
	OFFSET 56.877701 -32.693596 43.373703
	CHANNELS 6 Xposition Yposition Zposition Zrotation Xrotation Yrotation
	JOINT Chest
	{
		OFFSET -0.779999 1.005800 5.403099
		CHANNELS 6 Xposition Yposition Zposition Zrotation Xrotation Yrotation
		JOINT Chest2
		{
			OFFSET 0.000000 0.000000 4.236801
			CHANNELS 6 Xposition Yposition Zposition Zrotation Xrotation Yrotation
			JOINT Neck
			{
				OFFSET 0.000000 0.000000 9.874401
				CHANNELS 6 Xposition Yposition Zposition Zrotation Xrotation Yrotation
				JOINT Head
				{
					OFFSET 0.000000 0.000002 2.173893
					CHANNELS 6 Xposition Yposition Zposition Zrotation Xrotation Yrotation
					End Site
					{
						OFFSET 0.000000 0.000000 6.508102
					}
				}
			}
			JOINT LeftCollar
			{
				OFFSET 2.681599 -0.377600 5.432499
				CHANNELS 6 Xposition Yposition Zposition Zrotation Xrotation Yrotation
				JOINT LeftShoulder
				{
					OFFSET 5.161499 0.000000 0.000000
					CHANNELS 6 Xposition Yposition Zposition Zrotation Xrotation Yrotation
					JOINT LeftElbow
					{
						OFFSET 0.000000 0.000000 -10.869099
						CHANNELS 6 Xposition Yposition Zposition Zrotation Xrotation Yrotation
						JOINT LeftWrist
						{
							OFFSET 0.000000 0.000000 -13.344799
							CHANNELS 6 Xposition Yposition Zposition Zrotation Xrotation Yrotation
							End Site
							{
								OFFSET 0.000000 0.000000 -2.173901
							}
						}
					}
				}
			}
			JOINT RightCollar
			{
				OFFSET -2.381901 -1.419600 6.136600
				CHANNELS 6 Xposition Yposition Zposition Zrotation Xrotation Yrotation
				JOINT RightShoulder
				{
					OFFSET -4.550499 0.000000 0.000000
					CHANNELS 6 Xposition Yposition Zposition Zrotation Xrotation Yrotation
					JOINT RightElbow
					{
						OFFSET 0.000000 0.000000 -11.106499
						CHANNELS 6 Xposition Yposition Zposition Zrotation Xrotation Yrotation
						JOINT RightWrist
						{
							OFFSET 0.000000 0.000000 -12.874298
							CHANNELS 6 Xposition Yposition Zposition Zrotation Xrotation Yrotation
							End Site
							{
								OFFSET 0.000000 0.000000 -2.173901
							}
						}
					}
				}
			}
		}
	}
	JOINT LeftHip
	{
		OFFSET 2.431900 0.469601 -2.489399
		CHANNELS 6 Xposition Yposition Zposition Zrotation Xrotation Yrotation
		JOINT LeftKnee
		{
			OFFSET 0.000000 -0.000004 -18.200201
			CHANNELS 6 Xposition Yposition Zposition Zrotation Xrotation Yrotation
			JOINT LeftAnkle
			{
				OFFSET 0.000000 0.000000 -16.279900
				CHANNELS 6 Xposition Yposition Zposition Zrotation Xrotation Yrotation
				End Site
				{
					OFFSET 0.000000 -8.394100 0.000000
				}
			}
		}
	}
	JOINT RightHip
	{
		OFFSET -1.987999 -0.073502 -2.713001
		CHANNELS 6 Xposition Yposition Zposition Zrotation Xrotation Yrotation
		JOINT RightKnee
		{
			OFFSET 0.000000 -0.000004 -19.547802
			CHANNELS 6 Xposition Yposition Zposition Zrotation Xrotation Yrotation
			JOINT RightAnkle
			{
				OFFSET 0.000000 0.000000 -14.881199
				CHANNELS 6 Xposition Yposition Zposition Zrotation Xrotation Yrotation
				End Site
				{
					OFFSET 0.000000 -7.922699 0.000000
				}
			}
		}
	}
}
MOTION
Frames: 10
Frame Time: 0.041667
-2.501507 -12.935299 38.989300 4678.372278 13.613496 -9.561047 -0.779998 1.005798 5.403098 4.385448 -6.818554 -6.660047 -0.000001 0.000001 4.236805 -2.888798 -0.602075 0.119199 0.000000 0.000005 9.874399 46.294455 18.691178 16.180518 0.000008 0.000006 2.173893 1.144712 1.991852 6.909801 2.681602 -0.377597 5.432499 1.647976 -5.892704 9.258855 5.161505 0.000001 -0.000004 210.233551 -171.494644 137.705206 0.000004 -0.000002 -10.869102 -336.513913 -3.399856 -360.106752 -0.000000 -0.000004 -13.344801 -6.861849 -24.586873 34.290377 -2.381902 -1.419596 6.136595 20.644020 4.010712 13.094336 -4.550503 0.000001 0.000000 -1303.766835 -529.243382 -511.620948 -0.000004 -0.000004 -11.106505 684.641879 -33.056159 699.864732 -0.000003 0.000000 -12.874303 -278.617268 -1.354688 82.705483 2.431902 0.469603 -2.489395 -324.741836 -38.244681 26.748464 0.000002 -0.000001 -18.200207 283.975633 54.562768 58.352628 -0.000005 0.000000 -16.279900 37.485338 14.501552 1.420592 -1.987994 -0.073499 -2.712996 -121.178771 -29.746854 -57.451945 -0.000006 -0.000007 -19.547800 -1409.327792 47.144165 -321.158691 -0.000004 -0.000004 -14.881190 1990.397119 141.267478 -506.429512
-2.460701 -12.973995 39.292309 4678.728540 13.646983 -9.395884 -0.779996 1.005802 5.403101 4.007346 -7.088782 -6.893663 0.000004 0.000001 4.236792 -2.481319 -0.514778 0.177673 0.000004 -0.000001 9.874405 48.370508 19.021759 15.101721 -0.000002 0.000003 2.173894 0.565435 2.019486 7.413494 2.681600 -0.377599 5.432506 2.097666 -5.931197 9.091328 5.161503 0.000001 -0.000005 211.657467 -170.371638 138.101671 0.000003 0.000001 -10.869096 -333.975569 -3.851480 -359.816988 -0.000005 0.000001 -13.344806 -6.078661 -24.544020 34.365366 -2.381896 -1.419595 6.136598 20.249505 4.192655 13.455602 -4.550507 0.000001 0.000000 -1303.384891 -529.623305 -511.988303 -0.000002 -0.000004 -11.106504 685.038358 -31.687956 700.835547 -0.000001 -0.000010 -12.874292 -278.587406 -1.308540 82.668990 2.431903 0.469601 -2.489399 -325.603150 -37.589594 26.009692 0.000004 -0.000008 -18.200199 287.885124 55.005299 54.653258 -0.000002 -0.000001 -16.279900 36.185909 15.085724 0.028978 -1.987996 -0.073495 -2.713003 -120.793439 -30.123084 -56.230212 -0.000011 -0.000000 -19.547802 -1413.269740 43.104190 -320.956053 -0.000008 -0.000003 -14.881195 1994.384857 138.587284 -506.504535
-2.426701 -13.010004 39.584206 4679.177912 13.659125 -9.182661 -0.780002 1.005801 5.403102 3.523553 -7.298677 -7.141729 0.000001 0.000000 4.236799 -2.027663 -0.508399 0.222642 -0.000002 0.000005 9.874395 50.346619 19.244538 13.897884 -0.000003 0.000005 2.173893 0.146690 2.072556 7.926096 2.681601 -0.377597 5.432498 1.635369 -5.830894 9.134083 5.161503 0.000003 0.000001 213.841106 -168.836962 138.414521 0.000001 0.000001 -10.869091 -331.328624 -4.289282 -359.506160 -0.000006 -0.000001 -13.344805 -5.812052 -24.632411 34.016500 -2.381898 -1.419596 6.136591 20.068726 4.513879 13.471073 -4.550501 0.000001 -0.000007 -1303.389700 -529.695158 -512.199765 0.000004 -0.000002 -11.106505 685.927813 -30.553806 701.890347 0.000001 -0.000005 -12.874296 -278.814824 -1.128422 82.673853 2.431900 0.469603 -2.489397 -326.755703 -37.008441 25.137832 0.000002 -0.000005 -18.200199 292.340211 55.445635 50.662693 -0.000003 -0.000003 -16.279898 34.796354 15.754538 -1.531735 -1.988000 -0.073503 -2.713003 -120.632479 -30.261682 -55.102797 -0.000002 -0.000005 -19.547798 -1414.975648 40.788817 -321.653880 -0.000005 0.000002 -14.881197 1996.631716 136.687631 -506.744466
-2.388294 -13.040001 39.865208 4679.098354 13.701157 -8.843344 -0.779997 1.005802 5.403097 3.545858 -7.517599 -7.410665 0.000004 -0.000000 4.236801 -1.602430 -0.447447 0.274188 0.000002 0.000001 9.874404 51.631254 19.367466 13.014464 -0.000003 0.000003 2.173899 -0.004326 2.036755 8.346748 2.681601 -0.377595 5.432507 2.082117 -5.838438 9.156082 5.161503 0.000002 -0.000007 214.982226 -167.824004 138.697674 0.000006 0.000002 -10.869098 -328.761293 -4.863098 -359.005316 0.000001 -0.000005 -13.344801 -5.241228 -24.696426 33.854236 -2.381893 -1.419595 6.136600 19.952311 4.897594 13.554123 -4.550507 0.000005 0.000007 -1303.315169 -529.793732 -512.474448 0.000000 -0.000004 -11.106504 686.728584 -29.411317 702.991210 0.000001 0.000001 -12.874297 -279.299003 -0.701293 82.420842 2.431899 0.469606 -2.489399 -327.386485 -36.344963 24.278444 -0.000001 -0.000005 -18.200205 296.743880 55.605584 46.666164 0.000004 -0.000005 -16.279902 33.511579 16.460061 -3.035999 -1.987998 -0.073494 -2.712999 -120.004989 -30.398348 -54.032202 -0.000006 -0.000008 -19.547802 -1417.582376 37.745152 -322.359794 -0.000003 0.000005 -14.881200 1999.862559 133.912962 -507.289351
-2.355206 -13.070402 40.136600 4679.463796 13.728808 -8.560400 -0.779998 1.005797 5.403093 3.133470 -7.782370 -7.749692 0.000004 -0.000002 4.236796 -1.093025 -0.388563 0.334741 0.000000 0.000001 9.874396 51.830009 19.116070 13.072972 0.000003 0.000002 2.173902 0.732398 2.101682 8.036961 2.681600 -0.377601 5.432502 2.091941 -5.801827 9.266394 5.161501 0.000007 -0.000005 216.222165 -167.007810 138.935637 -0.000000 -0.000001 -10.869091 -326.099213 -5.643813 -358.271262 -0.000002 -0.000006 -13.344804 -4.725323 -24.701265 33.615220 -2.381899 -1.419599 6.136591 19.621129 5.205790 14.156615 -4.550497 0.000000 -0.000001 -1303.141737 -530.209881 -513.038786 -0.000004 -0.000006 -11.106499 687.613339 -28.265934 704.082291 0.000003 0.000004 -12.874302 -279.757636 -0.805173 82.386384 2.431903 0.469599 -2.489399 -328.367546 -35.757652 23.474597 0.000003 -0.000003 -18.200207 301.128451 55.661438 42.717943 0.000000 -0.000000 -16.279900 32.173125 17.152304 -4.512370 -1.987993 -0.073503 -2.713005 -119.849029 -30.468880 -53.020484 -0.000003 -0.000010 -19.547796 -1418.701434 36.081386 -323.541635 -0.000003 -0.000001 -14.881196 2001.355366 131.844125 -507.313284
-2.325294 -13.098999 40.394104 4679.791208 13.705942 -8.311115 -0.779999 1.005804 5.403097 2.746599 -7.989548 -7.993413 0.000002 -0.000003 4.236793 -0.642747 -0.308318 0.382663 0.000006 0.000005 9.874406 52.337458 18.850434 12.849048 0.000001 0.000004 2.173900 1.092745 2.176912 7.915236 2.681597 -0.377598 5.432504 2.214973 -5.787357 9.349849 5.161501 0.000004 -0.000010 217.509314 -165.838605 139.206058 -0.000004 0.000001 -10.869096 -322.854928 -6.057374 -357.572479 -0.000003 0.000002 -13.344802 -4.859995 -25.186644 34.625320 -2.381899 -1.419595 6.136601 20.151624 6.024573 14.297223 -4.550505 0.000008 -0.000002 -1303.843006 -530.171468 -513.559738 -0.000005 -0.000008 -11.106497 688.176803 -27.113713 704.998575 0.000000 0.000000 -12.874292 -279.905633 -0.816394 82.493659 2.431898 0.469608 -2.489399 -329.193917 -35.089660 22.739887 -0.000003 -0.000004 -18.200199 305.439831 55.539796 38.838279 0.000003 0.000000 -16.279902 30.807712 17.884633 -5.904021 -1.987997 -0.073494 -2.713003 -119.503230 -30.736606 -51.952451 -0.000007 -0.000010 -19.547802 -1419.904531 34.549853 -324.761971 -0.000005 -0.000002 -14.881193 2002.830905 129.740440 -507.611244
-2.293003 -13.122400 40.638004 4680.067476 13.582372 -8.114617 -0.779996 1.005798 5.403098 2.404095 -8.057342 -8.172159 -0.000001 0.000000 4.236798 -0.103035 -0.257095 0.438435 -0.000004 0.000004 9.874402 52.740627 18.621051 12.615238 0.000000 0.000004 2.173894 1.495799 2.194805 7.752820 2.681602 -0.377596 5.432506 2.098470 -5.746908 9.485021 5.161501 0.000004 -0.000005 219.081637 -164.413131 139.545969 0.000002 0.000005 -10.869097 -319.712658 -6.466584 -356.757036 -0.000002 -0.000007 -13.344801 -5.882462 -25.371597 34.553746 -2.381899 -1.419595 6.136598 20.026979 6.418702 14.210076 -4.550508 0.000003 -0.000005 -1303.860710 -530.083878 -513.618204 0.000004 -0.000004 -11.106503 689.025221 -26.002742 705.970429 -0.000002 0.000005 -12.874292 -280.142285 -0.671590 83.118601 2.431904 0.469604 -2.489388 -329.883957 -34.297996 22.096572 0.000001 -0.000004 -18.200195 309.972016 55.390976 34.818597 -0.000003 0.000001 -16.279900 29.259335 18.625714 -7.337176 -1.987994 -0.073497 -2.712997 -118.674469 -31.444337 -50.648797 -0.000003 -0.000003 -19.547798 -1421.377994 33.182582 -325.982062 -0.000008 0.000000 -14.881198 2004.054219 127.697244 -507.955814
-2.259899 -13.141397 40.872803 4680.383960 13.555974 -7.844747 -0.779996 1.005799 5.403091 2.020152 -8.275436 -8.439921 0.000002 -0.000001 4.236797 0.403707 -0.171902 0.497820 0.000006 0.000003 9.874404 53.186574 18.354559 12.308253 0.000001 0.000003 2.173892 1.881575 2.211670 7.684394 2.681602 -0.377601 5.432502 1.994157 -5.691788 9.505005 5.161499 0.000008 -0.000006 220.204042 -163.563633 139.816527 -0.000000 0.000005 -10.869101 -316.615577 -6.906016 -355.798569 0.000005 0.000005 -13.344806 -6.401555 -25.448786 34.577314 -2.381899 -1.419601 6.136602 19.858937 6.810365 14.260526 -4.550503 0.000004 -0.000003 -1303.665202 -530.075627 -513.726996 0.000000 -0.000006 -11.106497 689.596608 -24.744432 706.906985 -0.000003 0.000000 -12.874298 -280.926500 -0.914111 81.684766 2.431904 0.469603 -2.489395 -330.705902 -33.670626 21.373981 0.000005 -0.000008 -18.200201 314.375904 54.999395 31.055716 0.000004 -0.000003 -16.279900 27.793413 19.246081 -8.742926 -1.987996 -0.073496 -2.713001 -118.375743 -31.672373 -49.738329 -0.000005 -0.000007 -19.547798 -1422.353673 32.123093 -327.138003 -0.000004 -0.000002 -14.881198 2005.163223 125.730983 -508.221590
-2.225605 -13.160398 41.098701 4680.812349 13.459753 -7.617586 -0.779998 1.005798 5.403095 1.519854 -8.400089 -8.658494 0.000005 0.000000 4.236794 0.874596 -0.132932 0.543090 0.000000 -0.000001 9.874409 53.674543 18.004367 11.985653 0.000006 0.000005 2.173902 2.150531 2.309891 7.518171 2.681596 -0.377601 5.432502 1.976142 -5.640885 9.312347 5.161501 0.000005 -0.000006 222.646545 -161.938690 140.686980 -0.000002 -0.000001 -10.869101 -314.742412 -7.444012 -354.528400 0.000004 -0.000009 -13.344806 -7.294101 -25.459703 34.516218 -2.381899 -1.419599 6.136600 19.605766 7.145288 14.427586 -4.550501 0.000007 -0.000002 -1303.383033 -530.216111 -513.908242 -0.000001 -0.000004 -11.106503 690.088764 -23.589112 707.732672 0.000001 -0.000000 -12.874298 -281.685252 -1.078697 80.095197 2.431907 0.469599 -2.489395 -331.703274 -32.986125 20.630969 0.000004 -0.000005 -18.200207 318.926749 54.487407 27.282060 0.000004 -0.000001 -16.279898 26.114658 19.907160 -9.844393 -1.987996 -0.073496 -2.712994 -118.153858 -31.950419 -48.748648 -0.000003 -0.000003 -19.547798 -1422.923146 31.415329 -328.278043 -0.000005 0.000000 -14.881199 2005.898480 124.072094 -508.537910
-2.199001 -13.171297 41.308601 4681.210576 13.334643 -7.263744 -0.779998 1.005802 5.403093 1.026108 -8.470174 -8.968123 0.000001 0.000004 4.236804 1.361115 -0.082013 0.590013 -0.000006 -0.000004 9.874399 54.084160 17.631893 11.701168 -0.000001 0.000005 2.173894 2.438781 2.278223 7.382470 2.681606 -0.377600 5.432503 1.855806 -5.608686 9.180478 5.161503 0.000001 -0.000005 225.211718 -160.173810 141.599821 0.000009 -0.000004 -10.869099 -313.401290 -7.935203 -353.340576 -0.000003 -0.000001 -13.344805 -7.732080 -25.526917 34.408652 -2.381897 -1.419599 6.136592 19.356802 7.405331 14.434802 -4.550501 0.000006 -0.000004 -1302.928853 -530.274304 -513.894089 0.000005 -0.000004 -11.106503 690.493603 -22.365137 708.585954 -0.000002 0.000003 -12.874297 -282.460998 -1.222227 78.512082 2.431898 0.469604 -2.489401 -332.701438 -32.339607 19.766779 0.000008 -0.000002 -18.200201 321.247456 53.746127 25.178842 0.000000 -0.000001 -16.279896 24.674222 19.714470 -9.523436 -1.987992 -0.073494 -2.712999 -117.648547 -32.279177 -47.626988 -0.000002 -0.000001 -19.547802 -1423.745938 30.737849 -329.346148 -0.000010 -0.000001 -14.881195 2006.438993 122.342922 -508.788769
